<svg id="Layer_1" data-name="Layer 1" xmlns="http://www.w3.org/2000/svg" viewBox="0 0 250 250"><path d="M124.998,0A125,125,0,1,0,250,124.998,125,125,0,0,0,124.998,0Z" fill="#fff"/><path d="M200.9453,80.0928a37.1845,37.1845,0,0,1-4.1582,1.1611A84.04,84.04,0,1,1,54.289,79.5928a26.8293,26.8293,0,0,1-3.9629-1.5206,88.1957,88.1957,0,1,0,150.6192,2.0206Z" fill="#c41230"/><path d="M76.1552,56.6142a84.0612,84.0612,0,0,1,102.4209,3.6211c1.6416-.4677,3.2383-.89,4.8731-1.3056A88.2031,88.2031,0,0,0,71.5615,54.8379c.7012.2549,1.4092.5127,2.124.7881Q74.9614,56.1152,76.1552,56.6142Z" fill="#c41230"/><path d="M124.998,0A125,125,0,1,0,250,124.998,125,125,0,0,0,124.998,0Zm.0049,242.2578a117.2564,117.2564,0,1,1,117.2529-117.26A117.259,117.259,0,0,1,125.0029,242.2578Z" fill="#c0c2c4"/><path d="M94.84,99.9365a22.0127,22.0127,0,0,1-5.0078-3.4883c-5.3652-4.89-6.6348-10.0293-5.0488-15.9316.9433-3.5137,2.3828-5.2842,1.8925-8.95-.2793-2.1-1.7675-3.7891-3.2539-5.2149-3.5859-3.4492-7.8369-5.5771-14.1211-7.6923-3.88-1.3028-15.163-4.8057-20.1425-9.3125-1.125,3.3105,1.2832,7.7148,4.15,8.3046a8.1768,8.1768,0,0,0-5.7178,3.02c1.915,2.22,5.7412,4.5293,8.8994,4.5888a14.2292,14.2292,0,0,0-3.8311,4.2139,21.8083,21.8083,0,0,0,10.4336,2.4395,15.3518,15.3518,0,0,0-3.4209,3.8691,35.2242,35.2242,0,0,0,10.8711,2.8457c-1.5449.7637-3.7519,3.3994-4.8925,5.0234C68.01,84.707,73.1211,85.3447,76.291,85.66a17,17,0,0,0-5.9492,5.73,24.9326,24.9326,0,0,0,10.1543,2.2168A14.0536,14.0536,0,0,0,76.9433,99.27a25.8063,25.8063,0,0,0,8.7442.124,16.6848,16.6848,0,0,0-3.0537,8.1807,19.0827,19.0827,0,0,0,8.6513-2.165,10.8589,10.8589,0,0,0,.4512,6.6953,13.99,13.99,0,0,0,3.5644-1.3809C95.1152,106.9638,94.9511,103.1123,94.84,99.9365Z" fill="#005288"/><path d="M202.5507,55.4267c-4.98,4.51-12.9433,5.7149-21.3027,8.4756-6.2959,2.0762-10.2051,3.294-15.8437,7.7881a7.1853,7.1853,0,0,0-2.9688,6.4c.1914,3.6.7754,5.1514.8652,10.1836a12.0916,12.0916,0,0,1-2.6748,8.1738,20.3184,20.3184,0,0,1-5.5087,4.3389c-.1133,3.06-.25,6.1328-.42,9.7041a18.176,18.176,0,0,0,4.0274,1.6133,10.9155,10.9155,0,0,0,.4492-6.6953,19.0616,19.0616,0,0,0,8.6484,2.165,16.6827,16.6827,0,0,0-3.0527-8.1807,25.7886,25.7886,0,0,0,8.7412-.124,14.0563,14.0563,0,0,0-3.55-5.6631A24.9506,24.9506,0,0,0,180.1172,91.39a17.05,17.05,0,0,0-5.9493-5.73c3.168-.3154,8.419-.9316,10.7813-1.9863-1.1426-1.624-3.4932-4.2822-5.0332-5.0459a35.2472,35.2472,0,0,0,10.8711-2.8457,15.5412,15.5412,0,0,0-3.42-3.8691c3.9335-.2647,7.7031-.9873,10.4316-2.4395a14.3043,14.3043,0,0,0-3.83-4.2139C202.3955,62.914,202.538,58.7041,202.5507,55.4267Z" fill="#005288"/><path d="M167.1181,64.3291a73.9644,73.9644,0,0,0-81.0117-2.1153c2.9287,2.2764,4.669,4.68,5.0928,7.1846a16.61,16.61,0,0,1-.6426,8.6856c-1.3437,4.09-2.0781,8.2929.9414,12.56a16.0345,16.0345,0,0,0,10.1406,6.7h0c4.2344-.7431,8.9278-1.3515,13.6006-1.7246h0c.6094-1.9775,2.4151-3.6972,4.2237-5.1035,2.625-2.042,2.0449-3.8291,1.4238-5.2168a5.7806,5.7806,0,0,0-2.7754-2.668c-1.1816-.61-5.5137-1.0615-5.3975,1.7061a4.87,4.87,0,0,1-.8564-4.0938c.583-2.414,4.5273-3.0273,5.5078-2.956-.76-.6445-.2871-1.6836,1.44-2.1621a20.1023,20.1023,0,0,1,6.0137-.6192c3.9561.1026,4.5791,1.0684,6.5908,2.8526,2.4229,2.1543,5.6172,2.8955,6.8828,1.5986-.9043,2.0615-3.7793,3.1592-5.6269,2.8389a40.4363,40.4363,0,0,1,1.5429,8.3222c.1465,1.36.43,3.65.7979,5.52a147.88,147.88,0,0,1,15.2725,2.0576h0a11.8358,11.8358,0,0,0,5.705-3.7559c1.7-1.9619,3.26-4.4482,2.6153-10.7119-.18-1.7627-1.0645-6.2744-.94-8.3955C157.9375,70.0205,161.51,66.8789,167.1181,64.3291Z" fill="#005288"/><path d="M118.0273,77.5185c.7344.5518,1.16.6192,1.4063.5664.02.1338.2617.3106.3164.3633a.8681.8681,0,0,1,.2861.4151c.333-.1387,1.2148-.4981,2.0166-.7852.8164-.2939,1.9434-.625,1.9434-.625C120.5,76.7168,119.97,77.7842,118.0273,77.5185Z" fill="#005288"/><path d="M122.9336,135.9082l-1.4678-.7344-.9522-2.4863-2.1591-.9424-2.4219-2.165-1.4424,1.5927-2.1514.501-1.1435,1.8223-1.74,1.8379L107.1,136.58l-1.6309,2.7627-.9219,1.2246-1.5937,1.2382-.8789-.93-.9375.8994L99.96,143.9521a16.568,16.568,0,0,1-1.1885-5.4961c-.3457-4.8271-.6953-10.8945-1.04-17.1025a141.5533,141.5533,0,0,1,26.3447-2.9336v18.8174A2.25,2.25,0,0,1,122.9336,135.9082Z" fill="#0078ae"/><path d="M124.0761,144.9726H100.3847a13.7576,13.7576,0,0,0,1.209,2.0577,13.5513,13.5513,0,0,0,7.2188,5.1123c4.1855,1.2861,6.8515,2.124,8.7949,2.74l2.3154.7246a9.6619,9.6619,0,0,1,4.1533,2.3828Z" fill="#5e9732"/><path d="M149.1035,135.8174a8.3625,8.3625,0,0,1,2.3789-1.4854c.1387-2.207.2832-4.5723.4277-7.0185-.26.1709-.539.3925-.873.664a7.3947,7.3947,0,0,1-5.0235,2.0537,8.98,8.98,0,0,1-5.0507-1.67,5.3041,5.3041,0,0,0-2.9327-1.0908,7.0812,7.0812,0,0,0-3.5527,1.3584,8.5978,8.5978,0,0,1-4.4287,1.6064,8.1552,8.1552,0,0,1-4.1406-1.1308v6.6533c.2431.1387.4746.2832.6992.42a4.7156,4.7156,0,0,0,6.289.0459,9.7084,9.7084,0,0,1,5.1338-1.7949,8.1961,8.1961,0,0,1,4.545,1.5449,6.0109,6.0109,0,0,0,3.4384,1.2188A4.4676,4.4676,0,0,0,149.1035,135.8174Z" fill="#005288"/><path d="M130.0488,150.9765a8.2152,8.2152,0,0,1-4.1406-1.1269V157.99a9.6569,9.6569,0,0,1,4.1523-2.3828l2.3174-.7246c1.9414-.6162,4.6016-1.4541,8.7949-2.74a14.45,14.45,0,0,0,3.3535-1.503,10.1012,10.1012,0,0,1-3.5634-1.539,5.3122,5.3122,0,0,0-2.9327-1.0918,7.1035,7.1035,0,0,0-3.5527,1.3613A8.58,8.58,0,0,1,130.0488,150.9765Z" fill="#005288"/><path d="M149.1035,125.5869a7.2522,7.2522,0,0,1,3.0058-1.668q.07-1.2772.1465-2.5654a142.3125,142.3125,0,0,0-26.3476-2.9336v7.1094c.2431.1367.4746.2793.6992.42a4.7095,4.7095,0,0,0,6.289.0439,9.7094,9.7094,0,0,1,5.1338-1.7968,8.1969,8.1969,0,0,1,4.545,1.5488,6.0157,6.0157,0,0,0,3.4384,1.2158A4.4667,4.4667,0,0,0,149.1035,125.5869Z" fill="#0078ae"/><path d="M125.9082,139.3349V146.27c.2431.1367.4746.2813.6992.418a4.7186,4.7186,0,0,0,6.289.0478,9.7105,9.7105,0,0,1,5.1338-1.7988,8.1748,8.1748,0,0,1,4.545,1.55,6.0286,6.0286,0,0,0,3.4384,1.2139,3.904,3.904,0,0,0,2.5762-.959,16.597,16.597,0,0,0,2.6211-8.2852c.0059-.1367.0176-.2773.0283-.41-.0674.0517-.1308.1025-.2021.1582a7.3776,7.3776,0,0,1-5.0235,2.0566,8.9882,8.9882,0,0,1-5.0507-1.6679,5.288,5.288,0,0,0-2.9327-1.0958,7.0443,7.0443,0,0,0-3.5527,1.3633,8.6033,8.6033,0,0,1-4.4287,1.6035A8.1646,8.1646,0,0,1,125.9082,139.3349Z" fill="#0078ae"/><path d="M97.6308,119.5439c-.3769-6.9228-.7109-13.89-.9082-19.3926a139.853,139.853,0,0,1,28.27-3.1611,139.891,139.891,0,0,1,28.2734,3.1611c-.1992,5.503-.5332,12.47-.9121,19.3926a141.81,141.81,0,0,0-27.3613-2.92A141.8268,141.8268,0,0,0,97.6308,119.5439Z" fill="#005288"/><polygon points="103.148 104.728 103.46 103.235 102.076 102.609 103.579 102.45 103.737 100.935 104.353 102.329 105.826 102.02 104.708 103.039 105.463 104.365 104.154 103.595 103.148 104.728" fill="#fff"/><polygon points="112.369 103.505 111.094 102.679 110.034 103.768 110.413 102.29 109.059 101.603 110.568 101.512 110.791 100.003 111.348 101.424 112.834 101.177 111.672 102.147 112.369 103.505" fill="#fff"/><polygon points="119.287 102.972 118.059 102.078 116.945 103.114 117.4 101.656 116.082 100.902 117.594 100.887 117.894 99.393 118.374 100.84 119.873 100.671 118.66 101.58 119.287 102.972" fill="#fff"/><polygon points="126.198 102.823 125.024 101.858 123.851 102.823 124.393 101.393 123.127 100.559 124.633 100.637 125.024 99.166 125.418 100.637 126.924 100.559 125.655 101.393 126.198 102.823" fill="#fff"/><polygon points="145.892 103.604 144.584 104.374 145.34 103.049 144.221 102.029 145.693 102.338 146.313 100.945 146.467 102.46 147.971 102.619 146.588 103.245 146.902 104.738 145.892 103.604" fill="#fff"/><polygon points="138.369 102.151 137.197 101.184 138.688 101.426 139.238 100.003 139.469 101.512 140.975 101.598 139.625 102.288 140.008 103.767 138.944 102.681 137.67 103.511 138.369 102.151" fill="#fff"/><polygon points="131.392 101.583 130.18 100.675 131.682 100.844 132.16 99.397 132.463 100.891 133.974 100.908 132.657 101.66 133.109 103.119 131.996 102.082 130.767 102.976 131.392 101.583" fill="#fff"/><polygon points="104.154 115.925 104.476 114.434 103.096 113.799 104.6 113.65 104.769 112.137 105.376 113.534 106.851 113.237 105.725 114.247 106.471 115.578 105.168 114.799 104.154 115.925" fill="#fff"/><polygon points="113.125 114.791 111.856 113.953 110.787 115.033 111.179 113.558 109.831 112.86 111.342 112.781 111.578 111.274 112.121 112.7 113.61 112.468 112.439 113.427 113.125 114.791" fill="#fff"/><polygon points="119.773 114.307 118.549 113.409 117.434 114.44 117.892 112.984 116.578 112.226 118.089 112.216 118.396 110.724 118.869 112.172 120.369 112.009 119.152 112.913 119.773 114.307" fill="#fff"/><polygon points="126.427 114.185 125.254 113.221 124.08 114.185 124.623 112.756 123.355 111.922 124.862 112 125.254 110.528 125.646 112 127.152 111.922 125.885 112.756 126.427 114.185" fill="#fff"/><polygon points="145.344 114.878 144.039 115.653 144.789 114.324 143.666 113.31 145.139 113.613 145.752 112.218 145.912 113.731 147.417 113.886 146.037 114.517 146.358 116.009 145.344 114.878" fill="#fff"/><polygon points="138.078 113.48 136.905 112.517 138.396 112.755 138.942 111.331 139.176 112.839 140.684 112.922 139.334 113.616 139.721 115.093 138.655 114.009 137.382 114.842 138.078 113.48" fill="#fff"/><polygon points="131.357 112.941 130.146 112.033 131.647 112.201 132.127 110.755 132.43 112.25 133.939 112.266 132.623 113.019 133.076 114.476 131.963 113.44 130.732 114.333 131.357 112.941" fill="#fff"/><polygon points="107.457 109.311 107.813 107.828 106.449 107.161 107.955 107.048 108.159 105.538 108.733 106.949 110.215 106.685 109.066 107.67 109.78 109.018 108.496 108.209 107.457 109.311" fill="#fff"/><polygon points="100.844 110.362 101.142 108.867 99.754 108.251 101.256 108.081 101.402 106.564 102.029 107.954 103.5 107.635 102.39 108.662 103.154 109.982 101.84 109.221 100.844 110.362" fill="#fff"/><polygon points="116.409 108.381 115.159 107.516 114.066 108.573 114.49 107.105 113.158 106.379 114.67 106.333 114.939 104.832 115.451 106.269 116.945 106.068 115.754 107.003 116.409 108.381" fill="#fff"/><polygon points="123.031 108.063 121.83 107.137 120.688 108.141 121.183 106.696 119.887 105.905 121.398 105.933 121.741 104.447 122.18 105.907 123.684 105.781 122.444 106.655 123.031 108.063" fill="#fff"/><polygon points="129.658 108.15 128.518 107.146 127.313 108.071 127.904 106.661 126.666 105.784 128.169 105.913 128.609 104.456 128.953 105.939 130.46 105.913 129.166 106.704 129.658 108.15" fill="#fff"/><polygon points="148.516 109.272 147.19 110.016 147.974 108.705 146.875 107.664 148.342 108.002 148.986 106.622 149.111 108.14 150.611 108.33 149.217 108.928 149.501 110.428 148.516 109.272" fill="#fff"/><polygon points="141.285 107.715 140.133 106.726 141.619 106.996 142.195 105.583 142.396 107.096 143.902 107.212 142.539 107.876 142.894 109.361 141.851 108.255 140.56 109.06 141.285 107.715" fill="#fff"/><polygon points="134.595 107.031 133.403 106.095 134.902 106.298 135.412 104.862 135.682 106.362 137.191 106.413 135.858 107.138 136.277 108.605 135.188 107.543 133.939 108.408 134.595 107.031" fill="#fff"/><path d="M217.6406,80.0664c3.4433-1.5108,7.3887-.8184,8.3926,1.4619,1.0039,2.3057-1.1582,5.6758-4.6026,7.1826-3.4658,1.52-7.4179.832-8.4277-1.4717C212.0058,84.956,214.1679,81.5879,217.6406,80.0664Zm5.1973,11.8623a8.2375,8.2375,0,1,0-11.1358-4.1211A8.3339,8.3339,0,0,0,222.8379,91.9287Z" fill="#005288"/><path d="M216.75,103.2832l-1.6661-6.5674L216.1,96.457l.4629,1.835,13.9062-3.5274-.4639-1.8359,1.0127-.2568,2.5274,9.9482.6728-.1758.333,1.3067-3.8388.9736-.3272-1.28,1.7393-.44L230.85,97.9824,225.15,99.4277l.9843,3.8633,1.6416-.415.3516,1.2968-4.7529,1.2051-.3565-1.2978,1.69-.4278L223.73,99.791l-6.376,1.6191.4082,1.6143Z" fill="#005288"/><path d="M22.3007,85.6562l-.6,2.002,8.9766,2.6758c2.6953.8046,4.1133,2.2431,4.4639,4.5556a8.7081,8.7081,0,0,1-.292,3.6826c-1.1543,3.8643-4.0254,5.7383-7.3184,4.7569l-9.6445-2.874-.54,1.8134-1.0029-.2978,1.9951-6.6846,1.002.2988-.5352,1.792L27.708,100.03c2.4131.7177,3.6377.6162,4.6465-.4083a4.7216,4.7216,0,0,0,1.0429-1.8486c.8545-2.8633-.3447-5.0371-3.2568-5.91l-8.877-2.6455-.59,1.9824-1.0293-.3057,1.6523-5.5371Z" fill="#005288"/><path d="M38.0761,89.5351a1.6687,1.6687,0,1,1-.8945-2.1855A1.6707,1.6707,0,0,1,38.0761,89.5351Z" fill="#005288"/><path d="M41.1816,82.4258l-.6728,1.1953-3.9063-2.1983.6719-1.1963,1.6045.9043a4.605,4.605,0,0,0,2.6289-2.18,2.3867,2.3867,0,0,0-.627-3.41c-.9765-.5488-2.0254-.3086-4.4629.9775-2.5429,1.37-2.9082,1.5069-3.8759,1.7041a4.27,4.27,0,0,1-2.9151-.5507c-2.3926-1.3438-2.9883-3.9942-1.4961-6.6436a6.4394,6.4394,0,0,1,1.7949-2.0762l-.6494-.3672.6592-1.1709,3.7109,2.087-.6591,1.1718-1.4981-.8408a4.4636,4.4636,0,0,0-2.0967,1.8486,2.1705,2.1705,0,0,0,.6993,3.0225c.8711.49,1.6914.2949,4.19-1.0449,1.2119-.6309,1.9551-1.043,2.2646-1.1836a5.6122,5.6122,0,0,1,2.1563-.53,4.8831,4.8831,0,0,1,4.3476,7.3613,6.6231,6.6231,0,0,1-2.63,2.6914Z" fill="#005288"/><path d="M47.708,71.1445a1.6275,1.6275,0,1,1-1.628-1.6269A1.62,1.62,0,0,1,47.708,71.1445Z" fill="#005288"/><path d="M86.248,39.1094,75.707,44.5361l-.4785-.9326,1.6816-.8643L70.3418,29.9814,68.66,30.85l-.48-.9326,9.1221-4.6953-.3145-.6192,1.1954-.6172,1.8105,3.5215-1.1719.6055L78,26.5156l-4.6055,2.3711,2.6894,5.2295L79.625,32.291,78.85,30.7871l1.1884-.64L82.2851,34.51,81.1,35.1484l-.8-1.5508-3.544,1.8243,2.8184,5.4707,4.8047-2.4756-.8448-1.64,1.1944-.6133Z" fill="#005288"/><path d="M96.3925,35.4443l-6.8564,2.2725-.3311-.9951,1.7989-.5938L86.4882,22.5088l-1.7968.5947-.3262-.9922,7.1631-2.376c2.9287-.9717,5.4355.168,6.3349,2.8877a5.1663,5.1663,0,0,1-3.4775,6.374,6.2427,6.2427,0,0,1-1.3232.2823l-.3848-1.1582a2.4507,2.4507,0,0,0,.6641-.1426c1.6074-.5332,2.1191-1.9893,1.42-4.0918-.7324-2.2236-1.9922-3.0928-3.6953-2.5293l-1.419.4717,4.4053,13.2871,2.0107-.666Z" fill="#005288"/><path d="M104.5136,26.375l1.4161-6.5664,3.3945,5.7314ZM116.6308,29.91l-1.0293.1787-8.8105-14.624-1.4981.2588-3.6074,16.78-1.5234.2627.18,1.03,5.08-.88-.1787-1.03-1.9619.3418.9043-4.2539,5.9629-1.0352L112.36,30.65l-1.7178.2968.1768,1.0313,5.9893-1.0371Z" fill="#005288"/><path d="M123.7265,15.9189l1.57.003c1.7715.0058,2.7911,1.1533,2.7832,3.1464-.0019,1.9668-1.18,3.335-2.8945,3.3321l-1.4726-.0069Zm10.1084,13.999-1.0224-.0019c-.4981-.001-.7989-.2266-1.3682-1.1l-3.5244-5.44c2.3447-.7177,3.49-2.1572,3.4961-4.4a4.3333,4.3333,0,0,0-1.21-3.2158c-.8935-.8984-2.0908-1.2256-4.2314-1.23l-7.35-.0186v1.0459l1.8925.0039L120.4843,29.91l-1.8945-.0058-.0039,1.0468,6.9766.0167V29.9209l-1.8692-.003.0156-6.2763.6749.0019,3.72,5.8623c.8457,1.3223,1.0947,1.4707,2.5625,1.4756l3.1631.0059Z" fill="#005288"/><path d="M145.1045,32.9648l-7.91-1.3369.1748-1.0312,2.3789.4023L142.0713,17.27l-4.251-.7178-.3438,2.0391-1.35-.2275.7031-4.1758,1.3575.2285-.1192.6875,11.6387,1.9687.1191-.6884,1.3467.2275-.706,4.1758-1.35-.2285.3457-2.0371-4.2237-.7139L142.92,31.5351l2.3555.3985Z" fill="#005288"/><path d="M168.3779,40.8281l-6.8955-2.6758.375-.9746,1.9512.7578,3.8906-10.0342-9.4668,9.26L156.914,23.959l-3.81,9.8242,1.9531.7558-.3789.9746-5.3652-2.08.3769-.9756,1.9492.7578,5.1905-13.377-1.9512-.7558.376-.9776,4.1123,1.5957,1.3183,12.9327,9.041-8.9151,4.5958,1.7832-.38.9737-1.9453-.7559-5.1875,13.374,1.9492.7578Z" fill="#005288"/><path d="M180.5068,48.7578l-9.9951-6.3809.5644-.8838,1.5957,1.02,7.7246-12.0927L178.8,29.4023l.5615-.88,8.65,5.5225.3711-.5869,1.1367.7236L187.3886,37.52l-1.1152-.7119.9688-1.5107-4.3663-2.7891-3.163,4.9551,3.3544,2.1455.9161-1.43,1.1474.7041-2.6445,4.1357-1.1455-.7031.9385-1.4687-3.3614-2.1446-3.3086,5.1826,4.5547,2.91.9922-1.5527,1.1348.7246Z" fill="#005288"/><path d="M70.02,38.5683a8.1765,8.1765,0,0,0-11.5938-1.6494L52.163,41.5205l.6163.8437,1.5254-1.122,8.4785,11.54c.4043.1563.8027.3057,1.1972.4551l4.1553-3.0537a7.7352,7.7352,0,0,0,3.3731-5.169A8.3934,8.3934,0,0,0,70.02,38.5683ZM66.8242,49.4472l-1.627,1.1954L57.1015,39.622l1.7051-1.2529c2.35-1.7265,6.2158-.6709,8.3848,2.2793C69.5078,43.8008,69.3554,47.5888,66.8242,49.4472Z" fill="#005288"/><path d="M201.7187,45.3457l-.7051.7763,1.4541,1.3252-7.0322,7.712L197.21,41.2353l-3.6611-3.3388-.7031.7724L194.17,39.876l-.2715,1.4765-8.8105,9.6611-1.5254-1.3925-.7061.7724,4.1592,3.794.7031-.7754-1.4512-1.3252,7.334-8.04L192.0351,56.82c1.5176-.3945,3.1416-.83,4.9-1.3213.1445-.0391.2793-.08.4219-.1182l6.2676-6.8769,1.55,1.4082.708-.7715Z" fill="#005288"/><path d="M218.4853,63.457l-.5537.4229-7.1641-9.3819.5528-.4228-.835-1.0908-3.3642,2.57.8339,1.09,1.6416-1.2539,2.6143,3.4238-11.0625,8.4522-.5713-.749a9.4827,9.4827,0,0,1-.9619.4687l4.1045,5.3672.833-.6328L203.1,69.8193l11.0644-8.4521,2.5977,3.4043-1.6426,1.2558.8359,1.0889,3.3623-2.5713Z" fill="#005288"/><path d="M145.6621,234.4873l-1.336.293-.9648-4.378,1.3437-.2949.3936,1.8008a4.6055,4.6055,0,0,0,3.374.5088,2.3836,2.3836,0,0,0,2.1309-2.7354c-.24-1.0957-1.1192-1.72-3.7022-2.6846-2.7129-.9882-3.0595-1.164-3.8515-1.7568a4.2516,4.2516,0,0,1-1.5264-2.543c-.59-2.6777.9961-4.8886,3.9648-5.54a6.5329,6.5329,0,0,1,2.7442-.042l-.16-.7266,1.3125-.2871.9141,4.1612-1.3145.2871-.3691-1.6778a4.4735,4.4735,0,0,0-2.7734-.3388,2.1708,2.1708,0,0,0-1.792,2.5381c.2148.9707.9062,1.458,3.5664,2.43,1.28.4873,2.082.7666,2.3906.9033a5.5554,5.5554,0,0,1,1.8311,1.2578,4.8839,4.8839,0,0,1-2.6065,8.1435,6.5969,6.5969,0,0,1-3.7549-.1728Z" fill="#005288"/><path d="M170.9853,226.5224l-11.0342,4.334-.3808-.9726,1.7588-.6914-5.2422-13.3584-1.7637.6953-.3818-.9737,9.5566-3.7539-.26-.6494,1.254-.4931,1.4482,3.69-1.23.4834-.6523-1.67-4.8272,1.8955,2.1494,5.4677,3.708-1.456-.6172-1.5762,1.2452-.5156,1.791,4.5684-1.24.5146-.6367-1.6221-3.7148,1.4561,2.248,5.7256,5.0352-1.9727-.6778-1.7168,1.254-.4892Z" fill="#005288"/><path d="M187.5879,216.4121a13.7925,13.7925,0,0,1-4.0157,3.66c-4.4931,2.7256-9.5254,1.6368-12.0957-2.5986a8.4407,8.4407,0,0,1,3.0391-11.8613,9.4366,9.4366,0,0,1,4.0127-1.4444l-.542-.8955,1.17-.7129,2.3135,3.8135-1.1709.7129-.8262-1.3652a5.3462,5.3462,0,0,0-3.6875.7471c-2.957,1.7988-3.5234,5.5185-1.3828,9.0537,2.0957,3.4521,5.9981,4.7548,8.94,2.9707a5.7005,5.7005,0,0,0,2.3145-2.5694l-.98-1.6172,1.1934-.7226Z" fill="#005288"/><path d="M195.08,190.7031l-1.5449,1.41,6.3145,6.9209c1.8984,2.0791,2.3691,4.04,1.48,6.2011a8.6692,8.6692,0,0,1-2.1465,3.003c-2.98,2.7255-6.4072,2.8486-8.7276.3095l-6.7832-7.4345-1.3964,1.2763-.7032-.77,5.1485-4.7031.705.7725-1.3828,1.2578,6.2657,6.8681c1.6972,1.8555,2.8017,2.4,4.1923,2.044a4.7138,4.7138,0,0,0,1.8467-1.0479c2.2071-2.0146,2.3028-4.4961.2559-6.7422l-6.2461-6.8457-1.53,1.3965-.7217-.7949,4.27-3.8936Z" fill="#005288"/><path d="M223.0566,176.1758l-3.3262,6.1328-.9179-.5.9023-1.667L207.1015,173.31l-.9062,1.6641-.9141-.501L208.6,168.34l.9179.501-.89,1.6426,12.6162,6.8349.8926-1.64Z" fill="#005288"/><path d="M229.4179,161.2666l-2.8242,7.5049-.9765-.3682.85-2.26-13.0293-4.9072L211.916,165.27l1.9355.7266-.48,1.2842-3.9649-1.4942.4815-1.2812.6533.2461,4.1611-11.0489-.6533-.2461.4824-1.2812,3.9668,1.4912-.4844,1.2822-1.9336-.7275-1.51,4.0088L227.6,163.1367l.8379-2.2363Z" fill="#005288"/><path d="M233.832,142.94l-1.3379,6.8457-1.0293-.2.36-1.8359-6.7471-1.3194-8.2813,3.4112-.3007,1.539-1.0254-.2021,1.334-6.8438,1.03.2022-.3554,1.8066,6.0322-2.4228-4.7207-4.2989-.4043,2.0762-1.0235-.2,1.1123-5.6943,1.0225.2021-.34,1.7588,5.8984,5.3877,7.3828,1.4463.3643-1.8584Z" fill="#005288"/><path d="M217.06,185.1523l-.6093.8223c-.2969.3984-.6534.5068-1.6993.4453l-6.47-.3994c.8193-2.3076.34-4.0908-1.457-5.4277a4.3412,4.3412,0,0,0-3.3086-.9366c-1.2559.1856-2.2285.9522-3.5059,2.6739l-4.3769,5.8984.834.624L197.6,187.333l11.5215,8.5537-1.1309,1.5186.84.624,4.16-5.5977-.8418-.624-1.1113,1.5-5.041-3.7461.4-.5361,6.9258.4892c1.5645.1065,1.8321-.0058,2.7119-1.1845l1.8887-2.54Zm-17.2627-.1894.9317-1.26c1.0566-1.4228,2.5879-1.56,4.1855-.3711,1.5762,1.1748,1.9785,2.9277.959,4.3106l-.8769,1.1787Z" fill="#005288"/><path d="M19.6748,158.3486l-1.6563-6.7734,1.0156-.25.4444,1.8164,6.3633-1.5547L23.92,143.7217l-6.3653,1.5546L18,147.0908l-1.0157.248-1.6562-6.7734,1.0176-.25.4472,1.8428L30.7314,138.75l-.4482-1.8408,1.0156-.2452,1.6543,6.7705-1.0156.2481-.4424-1.8125-6.1475,1.5019,1.9219,7.8624,6.1475-1.501-.4444-1.8125,1.0176-.252,1.6553,6.7774-1.0186.248-.4453-1.8379L20.24,156.2627l.4551,1.8418Z" fill="#005288"/><path d="M29.17,162.14c3.4219-1.56,7.3769-.9238,8.4121,1.3418,1.041,2.291-1.0742,5.69-4.5,7.2539-3.4453,1.5664-7.4.9287-8.4443-1.3554C23.6074,167.1084,25.7207,163.7138,29.17,162.14Zm5.3711,11.7871a8.2373,8.2373,0,1,0-11.1934-3.958A8.35,8.35,0,0,0,34.541,173.9267Z" fill="#005288"/><path d="M40.8691,197.5888l-4.3457-5.9882.8457-.6114,1.23,1.6914,8.707-6.3193L34.332,189.0049,40.3769,177.2l-8.5254,6.1884,1.23,1.6934-.8467.6182-3.3808-4.6573.8466-.6142,1.2315,1.6894,11.6064-8.4287-1.2265-1.69.8447-.6172,2.5889,3.5654-5.9024,11.586,12.4317-2.5987,2.8984,3.9952-.8467.6162-1.2285-1.6944-11.6123,8.43,1.2324,1.6973Z" fill="#005288"/><path d="M53.8261,210.3291l-8.72-8.0322.71-.7706,1.3935,1.2823L56.9336,192.26l-1.3926-1.2822.706-.77,7.5518,6.9561.4687-.5147.9932.9131-2.6865,2.9111-.9688-.8925,1.2129-1.3194-3.81-3.5127-3.9815,4.3213,2.9307,2.7031,1.1475-1.2461,1.0039.8887-3.3272,3.6133-1.0058-.89,1.1826-1.288-2.9307-2.6993-4.1689,4.5235,3.9736,3.664,1.249-1.3554.9893.91Z" fill="#005288"/><path d="M68.6591,220.5029,58.9023,213.94l.5859-.873,1.5723,1.0625,8.0078-11.9082-1.5722-1.0577.5859-.8662,5.7871,3.8926-.584.8691-1.5508-1.0419-7.7734,11.5546,4.4014,2.962,1.0322-1.5332,1.1143.7539Z" fill="#005288"/><path d="M78.5976,218.3818l4.8721-4.625-.4277,6.6485Zm8.0166,9.7539-.9521-.4355.9707-17.0449-1.3838-.629L72.8066,221.8506l-1.4043-.6407-.4336.9532L75.66,224.3l.4336-.9551-1.8144-.8242,3.1445-3.002,5.5117,2.5059-.2666,4.3144L81.082,225.62l-.4326.9473,5.5283,2.5175Z" fill="#005288"/><path d="M103.8486,234.0127l-1.6953-.4082-5.5908-13.8907L94.0293,230.3l1.914.459-.2422,1.0195-5.4765-1.3125.2422-1.0176,2.0136.48,3.045-12.7149-.4825-1.4238-1.7422-.415.2432-1.02,4.8233,1.1562,5.1718,13.0449,2.4326-10.15-1.916-.4571.2471-1.0176,5.4736,1.3106-.2451,1.0156-2.0351-.4863Z" fill="#005288"/><path d="M120.02,218.8135l-7.7656-.2793-.041,1.0449,1.8935.0674-.5127,14.3369H113.59l-1.8945-.0664-.0362,1.0488,7.7393.2773-.0176-.0039h.0215a7.7345,7.7345,0,0,0,5.8535-1.96,8.4,8.4,0,0,0,2.834-5.9785A8.1786,8.1786,0,0,0,120.02,218.8135Zm4.5605,8.3642c-.1406,3.9072-2.6093,6.7842-5.748,6.6709l-2.0176-.0723.49-13.666,2.1132.0762C122.332,220.291,124.7089,223.5176,124.58,227.1777Z" fill="#005288"/><path d="M204.4814,135.2412l-6.1142,1.8857,1.3789.5625-2.1446,1.3584q.356-1.8691.6192-3.7715l3.3574-2.8066.0762,1.4873,3.7793-5.165-5.8164,2.67,1.44.376-2.6807,2.2363q.2813-2.3115.418-4.667l3.3066-3.66.2774,1.4639,3.0527-5.623-5.4111,3.4179,1.4834.1787-2.6426,2.8311c.0371-.9746.0625-1.9512.0625-2.9336a73.97,73.97,0,0,0-3.0918-21.2139c-3.35.3067-6.7012-.7617-8.3106-1.0742,4.2862,2.5147,5.7715,5.23,6.4014,8.3467a13.9931,13.9931,0,0,1-10.5146-2.3193,12.6284,12.6284,0,0,1,4.1074,9,12.3084,12.3084,0,0,1-9.1963-3.8809c1.542,1.7149,3.4863,6.0586,3.0273,9.1445a13.66,13.66,0,0,1-8.3095-4.5517c1.5586,3.456,2.3086,6.2529,2.1259,9.3515A13.6776,13.6776,0,0,1,167.375,124a19.1419,19.1419,0,0,1,1.4511,8.9277c-3.3916-1.1963-5.6406-2.5439-7.5468-5.7363,1.0107,2.8105,1.6757,6.5068.9726,8.6572a9.8356,9.8356,0,0,1-6.249-5.5117,13.599,13.599,0,0,1,.792,8.6006,7.4791,7.4791,0,0,1-3.6074-1.9932c-.0371.5625-.0743,1.1113-.11,1.6367a20.5582,20.5582,0,0,1-1.2373,5.875c.2334.2686.7949.9326.8184.96a14.0626,14.0626,0,0,0,5.1972,3.6768c-.705.1025-1.6679.705-2.6367.8154,1.0762,1.2207,3.2656,1.49,4.627,2.875-1.0606.12-1.31.8906-2.583.7461a10.4069,10.4069,0,0,0,5.9248,2.0957,14.7332,14.7332,0,0,0,3.1845.0517,5.753,5.753,0,0,1,3.3037.6963l13.3692-27.08-1.4668.2569,4.1914-4.8389-1.3008,6.2715-.6894-1.3252-13.44,27.21a1.9319,1.9319,0,0,1,.3848,1.0625c.0371-.003.0781-.0059.1006-.0088l.5087-.4043-.0039-.0039,21.6446-17.0977-1.4366-.3945,5.8545-2.583L193.541,142.55l-.0586-1.4912-21.4766,16.9453a2.1186,2.1186,0,0,1,1.252.5644c.3642.585.2676.8819-.0723,1.89-.3271.9707-.5683,1.3154-1.2109,1.3906a1.7359,1.7359,0,0,1-.8926-.0928.9219.9219,0,0,1,.4238.4991c.1.26.2559.7129-.5351,1.6181-.7022.794-1.3672,1.0918-1.916.7686a2.0324,2.0324,0,0,1-.5625-.5371,4.305,4.305,0,0,1,.205.6914c.1328.8047-.48,1.0976-1.2461,1.3711-1.4511.5146-2.164.291-2.5058-.2217a2.1754,2.1754,0,0,1,.166-2.7695A3.3,3.3,0,0,0,165.08,164.6c.0684.4228.2657,1.1279,1.0567,1.0566a4.4131,4.4131,0,0,0,1.6777-.5215c.336-.2177.3486-.7861.1778-1.2656a1.7351,1.7351,0,0,0-.4668-.8379,2.9051,2.9051,0,0,1,1.1425.6992.9491.9491,0,0,0,1.2715.04,4.3516,4.3516,0,0,0,.8125-1.0606c.3643-.7685-.6211-1.3662-1.1933-1.6894,1.0068.0459,1.1679.4316,1.9873.3154s1.0556-1.418,1.0634-1.8525c.0079-.3164-.372-.6319-.8418-.7539a4.06,4.06,0,0,0-1.0761-.083,2.5269,2.5269,0,0,1-.0586.2763,1.7174,1.7174,0,0,1-.9492,1.1846c-.3916.1074-.6348.1367-.2452-.1484a1.9329,1.9329,0,0,0-.1445-2.45,3.828,3.828,0,0,0-2.4346-.7569,32.8591,32.8591,0,0,1-3.6.0694c-.748-.0791-1.2129.9091-1.3242,1.3213-.2676.9785-.57,2.1992-1.9883,1.5908-1.7383-.9981-4.2285-.917-7.081-2.0645.4092.876.2314,1.6328.667,2.6094-2.5371-.624-3.1817-1.9141-5.6-2.7637.3984.8877.2919,1.5694.8378,2.4053-2.0429-.3613-3.9443-2.1914-6.7832-2.9482-.0859.0283-.17.0537-.2578.08-1.0332.3145-1.9726.6055-2.834.8711a19.1992,19.1992,0,0,1,4.44,8.4463,10.9127,10.9127,0,0,1-3.5078-.6894,20.0326,20.0326,0,0,1,1.0039,5.9345,12.229,12.229,0,0,1-3.7656-1.6386,21.566,21.566,0,0,1-.292,6.2236,13.5156,13.5156,0,0,1-4.0127-2.9668,22.454,22.454,0,0,1-1.6582,6.2412,14.154,14.154,0,0,1-3.3946-3.8008,24.1192,24.1192,0,0,1-3.07,6.0489,15.9522,15.9522,0,0,1-3.07-5.8,13.7784,13.7784,0,0,1-3.2265,3.5517,22.8656,22.8656,0,0,1-1.66-6.2432,13.4693,13.4693,0,0,1-4.0078,2.9688,21.4933,21.4933,0,0,1-.2969-6.2275,12.2035,12.2035,0,0,1-3.7734,1.6425,20.2008,20.2008,0,0,1,1.01-5.9345,10.8976,10.8976,0,0,1-3.5058.6894,20.9446,20.9446,0,0,1,4.5605-8.5791h.003c-.7393-.2275-1.542-.4756-2.4-.7383-.0859-.0263-.17-.0517-.2568-.08-2.8369.7568-4.74,2.5869-6.78,2.9482.545-.8359.4327-1.5176.8321-2.4053-2.4151.85-3.0625,2.14-5.5948,2.7637.4307-.9766.2549-1.7334.669-2.6094a34.2739,34.2739,0,0,1-7.01,2.2549c-1.5722.3262-1.6719-2.0185-2.1875-2.5381a3.9792,3.9792,0,0,0-2.02-.2373,24.5384,24.5384,0,0,1-3.4463.042,3.8927,3.8927,0,0,0-2.5215.7686c-.8261.6093-.4365,2.2519-.0771,2.5156.3916.2871.1494.2549-.2432.1465a1.71,1.71,0,0,1-.9511-1.1826c-.0137-.0479-.0245-.1045-.0362-.1592a4.3521,4.3521,0,0,0-1.2793.0361c-.4765.1113-.8662.4121-.8681.73-.0039.4345.205,1.7392,1.0175,1.88.81.1406.9873-.2413,1.99-.2549-.5811.3047-1.5821.8769-1.24,1.6533a4.26,4.26,0,0,0,.7872,1.08.9486.9486,0,0,0,1.2714-.002,2.8385,2.8385,0,0,1,1.1631-.666,1.7749,1.7749,0,0,0-.4951.8242c-.1807.4756-.1865,1.042.1445,1.2676a4.3217,4.3217,0,0,0,1.6621.5684c.7911.0976,1.0059-.6016,1.084-1.0254a3.2123,3.2123,0,0,0,.01-1.4229c.4912.2559.8555,1.6836.0879,2.7715-.3594.5049-1.0762.709-2.5088.15-.7568-.293-1.3623-.6025-1.2061-1.4043a3.6012,3.6012,0,0,1,.2256-.6855,2.1425,2.1425,0,0,1-.5791.5253c-.5566.3028-1.2187-.0107-1.8955-.8242-.7666-.9316-.5976-1.375-.4892-1.6347a.9242.9242,0,0,1,.4375-.4873,1.74,1.74,0,0,1-.8936.0693c-.64-.0947-.874-.4434-1.1709-1.4238-.31-1.0176-.4-1.3194-.0195-1.8916.291-.4434,1.8662-.7178,2.6992-.5469a1.7264,1.7264,0,0,1,.7812-1.5235,5.9721,5.9721,0,0,1,3.5821-.8515,14.4545,14.4545,0,0,0,3.1816-.0528,16.1387,16.1387,0,0,0,6.6133-2.6093c-1.2734.1445-1.5273-.626-2.5859-.7461,1.3632-1.3848,3.5527-1.6543,4.63-2.875-.9677-.11-1.8183-.8848-2.5195-.9863a18.1988,18.1988,0,0,0,5.0791-3.5059c.0215-.0274.5781-.665.8125-.9307a20.4926,20.4926,0,0,1-1.25-5.9043c-.0342-.5078-.0693-1.0361-.1055-1.5791a8.734,8.734,0,0,1-3.3652,1.8008c-.8232-1.9951-.4238-5.7168.6152-8.5928-1.49,2.9336-3.18,4.8409-6.0507,5.7-.7022-2.15-.2871-5.9082.7207-8.7187a12.5113,12.5113,0,0,1-7.3438,6.0039A20.0232,20.0232,0,0,1,82.6211,124a13.646,13.646,0,0,1-7.7823,3.8847c-.1865-3.0986.5684-5.8955,2.127-9.3515-1.8809,2.3076-5.793,3.8867-8.7412,4.1992.2246-2.6816,2.1025-6.3506,3.2031-8.5068a17.0688,17.0688,0,0,1-8.9414,3.5957,17.2968,17.2968,0,0,1,4.1055-9,15.1616,15.1616,0,0,1-10.1407,2.7158,13.64,13.64,0,0,1,5.6036-8.3428,26.6889,26.6889,0,0,1-7.8829.6738A73.9487,73.9487,0,0,0,51.08,124.7412c-1.6767-1.3154-2.84-1.6465-3.9941-2.7871.2178,1.57.4219,2.4248.5977,4.3691.3144,3.49,1.6328,5.4951,3.8242,6.749q.1611,1.4941.3789,2.9688a11.8427,11.8427,0,0,0-6.6778-1.6533c1.752,5.69,4.2481,6.11,7.6016,6.6533.1133.52.2344,1.0381.3594,1.5547a12.2323,12.2323,0,0,0-6.3633.2,10.2852,10.2852,0,0,0,7.7539,4.76c.0059.0215.0127.0411.02.0616a12.91,12.91,0,0,0-6.76,1.1582c2.834,2.4345,5.6094,3.3632,8.2617,3.09.1348.3467.2744.6934.415,1.04a11.9026,11.9026,0,0,0-4.9834,2.6562,16.43,16.43,0,0,0,6.5186.8535c.0244.0518.0469.1035.0713.1533a8.5592,8.5592,0,0,0-2.8926,4.7256c1.57-.4023,3.1855-.5049,4.793-.9668q.4848.8922.9951,1.77a8.5564,8.5564,0,0,0-.6445,5.8906,9.1689,9.1689,0,0,0,3.3877-1.5156q.4746.7045.9648,1.3945a8.7345,8.7345,0,0,0,1.7969,6.9033,17.5932,17.5932,0,0,0,1.539-2.0215c3.3321-5.09,1.3164-8.7549,1.3907-12.0556.0253-.0674.0527-.1348.0781-.2061.2734,3.93,3.6875,7.8057-.3164,12.5537-.0791.0947-.1494.1738-.2217.2559A73.9292,73.9292,0,0,0,194.35,150.7344l3.3584-1.4561-.253,1.4658,4.836-4.1865-6.27,1.2949,1.3252.69L194.7548,149.6q.6872-1.9527,1.2666-3.9512l3.6817-2.03-.1231,1.4854,4.4414-4.6133-6.125,1.8633,1.377.5654-2.9414,1.62q.5874-2.1664,1.0508-4.3779l2.7969-1.7744-.1192,1.4834Z" fill="#005288"/><path d="M170.6914,158.6465a4.06,4.06,0,0,1,1.0761.083c.47.122.85.4375.8418.7539-.0078.4345-.2451,1.7353-1.0634,1.8525s-.98-.27-1.9873-.3154c.5722.3232,1.5576.9209,1.1933,1.6894a4.3516,4.3516,0,0,1-.8125,1.0606.9491.9491,0,0,1-1.2715-.04,2.9051,2.9051,0,0,0-1.1425-.6992,1.7351,1.7351,0,0,1,.4668.8379c.1708.48.1582,1.0479-.1778,1.2656a4.4131,4.4131,0,0,1-1.6777.5215c-.791.0713-.9883-.6338-1.0567-1.0566a3.3,3.3,0,0,1,.0313-1.4238,2.1754,2.1754,0,0,0-.166,2.7695c.3418.5127,1.0547.7363,2.5058.2217.7657-.2735,1.3789-.5664,1.2461-1.3711a4.305,4.305,0,0,0-.205-.6914,2.0324,2.0324,0,0,0,.5625.5371c.5488.3232,1.2138.0254,1.916-.7686.791-.9052.6347-1.3584.5351-1.6181a.9219.9219,0,0,0-.4238-.4991,1.7359,1.7359,0,0,0,.8926.0928c.6426-.0752.8838-.42,1.2109-1.3906.34-1.0078.4365-1.3047.0723-1.89a2.1186,2.1186,0,0,0-1.252-.5644l21.4766-16.9453.0586,1.4912,3.8515-5.1123-5.8545,2.583,1.4366.3945L171.33,157.5127l.0039.0039-.5087.4043c-.0225.0029-.0635.0058-.1006.0088" fill="#fff"/><polyline points="170.34 156.867 183.779 129.657 184.469 130.982 185.769 124.711 181.578 129.55 183.045 129.293 169.676 156.373" fill="#fff"/><path d="M166.9609,159.872a3.73,3.73,0,0,1,.207,2.51,2.28,2.28,0,0,0,1.7559-2.2881A1.65,1.65,0,0,0,166.9609,159.872Z" fill="#fff"/><path d="M166.7031,160.0127a1.3,1.3,0,0,1-1.291-.876c-.1553-.4033-.6026-.6533-.6084-.041-.0108.61-.0127.8808.333,1.0478A1.7127,1.7127,0,0,0,166.7031,160.0127Z" fill="#fff"/><path d="M166.7939,162.6035a3.1986,3.1986,0,0,1-.5185-1.2734,8.9578,8.9578,0,0,0-.5684,2.1386c-.0254.1729-.01.2383.4463.2637a2.2413,2.2413,0,0,0,1.3818-.4355A3.5227,3.5227,0,0,1,166.7939,162.6035Z" fill="#fff"/><path d="M183.1836,134.1162l1.4873-.0752-8.3975,12.7422c-.9844,1.9922-1.94,3.9277-2.78,5.6308l.1319-.1464,11.73-17.7754.5225,1.3984,2.0557-6.0654Z" fill="#fff"/><path d="M179.9941,145.2754l15.252-19.3106.4043,1.4365,2.5605-5.8681-5.0957,3.8711,1.4863.0517L180.7929,142.96c-1.082,1.6407-2.2343,3.3877-3.3134,5.0215l.0283.0235C178.3154,147.1181,179.15,146.2021,179.9941,145.2754Z" fill="#fff"/><path d="M178.1757,151.0136c1.2813-1.0117,2.6172-2.0654,3.9248-3.1l12.7022-11.7617.1777,1.4815,3.4307-5.4053-5.63,3.0439,1.4629.2793-12.7422,11.8155C180.3545,148.625,179.2334,149.8554,178.1757,151.0136Z" fill="#fff"/><path d="M192.2851,148.247l-17.8857,8.959c-.3155.251-.5674.4473-.7237.5723a1.3625,1.3625,0,0,1,.3086.3369c.0352.0576.0616.11.0918.1641l18.5762-9.3-.248,1.4716,4.8164-4.2187-6.2618,1.335Z" fill="#fff"/><path d="M165.2539,167.1953a1.9075,1.9075,0,0,1-.7022-.4082l-3.2021,6.64.0156.0078-1.1709.3956-3.79,7.26,1.8349-.5586.667,1.7989,3.5879-7.36-.4219-1.1865Z" fill="#fff"/><path d="M177.7226,154.5849c1.2266-.6152,2.6436-1.3252,4.084-2.0459l11.8926-7.77-.0781,1.4912,4.3017-4.7431-6.0654,2.0439,1.3945.5225-12.9414,8.46C179.3964,153.2636,178.5234,153.9511,177.7226,154.5849Z" fill="#fff"/><path d="M163.7949,165.42a3.3306,3.3306,0,0,1-.0947-1.0869l-4.2491,4.6328-1.25.1045-.1054.1074-.001.002-5.9111,5.9121.2773-.0137-.0215.0225.0723-.0245,1.458-.0712.2568,1.4482,4.8985-6.4375.9443-.2021Z" fill="#fff"/><path d="M171.6289,156.1855c.5234-.4121,1.2675-1.0019,2.1679-1.7109l20.875-22.8272.295,1.4639,2.9882-5.6631-5.3681,3.4844,1.48.1611-21.8544,23.9092C172.0019,155.4287,171.8086,155.8232,171.6289,156.1855Z" fill="#fff"/><path d="M152.9472,171.79l7.7774-5.4785c.8916-.9727,1.8662-2.0342,2.2119-2.4131l-9.7207,6.416.0107.0157-1.2119-.253-.71.4434-6.24,3.8926,1.752.3642.2109,1.3155,5.0332-4.3438Z" fill="#fff"/><path d="M146.498,172.51l3.1172-1.9433,2.9072-1.9815.9873.19s7.084-4.3653,8.8164-5.4981c.086-.0576.1387-.0918.1387-.0918h.002c.0175-.0117.0371-.0234.0546-.0351l-9.3037,4.6406-1.1767-.3682-7.4,3.51,1.666.61Z" fill="#fff"/><path d="M78.582,158.5664c-.833-.1709-2.4082.1035-2.6992.5469-.3809.5722-.291.874.0195,1.8916.2969.98.5313,1.3291,1.1709,1.4238a1.74,1.74,0,0,0,.8936-.0693.9242.9242,0,0,0-.4375.4873c-.1084.26-.2774.7031.4892,1.6347.6768.8135,1.3389,1.127,1.8955.8242a2.1425,2.1425,0,0,0,.5791-.5253,3.6012,3.6012,0,0,0-.2256.6855c-.1562.8018.4493,1.1113,1.2061,1.4043,1.4326.5586,2.1494.3545,2.5088-.15.7676-1.0879.4033-2.5156-.0879-2.7715a3.2123,3.2123,0,0,1-.01,1.4229c-.0781.4238-.2929,1.123-1.084,1.0254a4.3217,4.3217,0,0,1-1.6621-.5684c-.331-.2256-.3252-.792-.1445-1.2676a1.7749,1.7749,0,0,1,.4951-.8242,2.8385,2.8385,0,0,0-1.1631.666.9486.9486,0,0,1-1.2714.002,4.26,4.26,0,0,1-.7872-1.08c-.3418-.7764.6592-1.3486,1.24-1.6533-1.003.0136-1.1807.3955-1.99.2549-.8125-.1407-1.0214-1.4454-1.0175-1.88.0019-.3184.3916-.6192.8681-.73a4.3521,4.3521,0,0,1,1.2793-.0361" fill="#fff"/><path d="M60.1757,150.164c.1905.02.1465.0059-.0693-.0654a9.4629,9.4629,0,0,0-6.8818-1.26A25.756,25.756,0,0,1,60.1757,150.164Z" fill="#fff"/><path d="M61.5517,165.873a11.1128,11.1128,0,0,1,3.8311-6.417c1.459-1.206,2.2832-1.65,1.0693-.374A36.3524,36.3524,0,0,0,61.5517,165.873Z" fill="#fff"/><path d="M66.1132,171.7109c-.8007-2.0146-.1054-5.2471.7657-7.3623a12.3573,12.3573,0,0,1,2.5644-3.8926C67.7851,163.0078,66.0214,169.7676,66.1132,171.7109Z" fill="#fff"/><path d="M59.4238,143.6094a1.4081,1.4081,0,1,0-1.1016,1.6621A1.41,1.41,0,0,0,59.4238,143.6094Z" fill="#fff"/><path d="M71.6757,145.5469c.0489-2.1094-.2714-4.2823-.0244-6.7383-4.1982,3.06-5.63,8.4277-3.8935,12.1758a1.4092,1.4092,0,0,0-.5352.0019,1.4614,1.4614,0,1,0,1.086.21c-.7012-3.3184-.1231-7.46,1.6171-9.209a26.96,26.96,0,0,0-.8886,10.44,11.2306,11.2306,0,0,0,1.5761-2.2891,8.2658,8.2658,0,0,0,.4961,1.9727,9.9775,9.9775,0,0,1,4.4727-8.5547,19.5261,19.5261,0,0,0-4.1113,9.3828c1.7675-2.2441,5.7793-2.9082,6.0625-11.6806A10.923,10.923,0,0,0,71.6757,145.5469Z" fill="#fff"/><path d="M74.4472,154.5654a1.5252,1.5252,0,1,0-1.1953,1.793A1.5292,1.5292,0,0,0,74.4472,154.5654Z" fill="#fff"/><path d="M73.916,159.1845a1.523,1.523,0,1,0-1.1934,1.793A1.5285,1.5285,0,0,0,73.916,159.1845Z" fill="#fff"/><path d="M65.0722,136.665a9.6453,9.6453,0,0,0-3.6289,8.6934,1.1681,1.1681,0,0,0-.3633.0127,1.1829,1.1829,0,1,0,.4668,2.3193,1.1361,1.1361,0,0,0,.3965-.1611,9.4444,9.4444,0,0,0,1.1289,2.2451,17.5936,17.5936,0,0,1-.5849-3.1123,1.1479,1.1479,0,0,0-.0108-.3643c-.0058-.0283-.0176-.0517-.0244-.0791a10.1972,10.1972,0,0,1,1.56-6.7451c-.4238,2.6465-1.0449,7.77-.4512,10.9483C64.4648,147.0381,69.3427,145.5429,65.0722,136.665Z" fill="#fff"/><path d="M77.4765,156.6318a1.1876,1.1876,0,1,0-.93,1.4A1.19,1.19,0,0,0,77.4765,156.6318Z" fill="#fff"/><path d="M70.914,156.4072a1.09,1.09,0,1,0-.8515,1.2881A1.0816,1.0816,0,0,0,70.914,156.4072Z" fill="#fff"/><path d="M55.9648,141.3691a1.0106,1.0106,0,0,0-.9883-.8418,10.4187,10.4187,0,0,0-7.4218-4.6787,33.2788,33.2788,0,0,1,7.1542,4.7149,1.0113,1.0113,0,1,0,1.2559.8056Z" fill="#fff"/><path d="M56.01,134.3935a1.2777,1.2777,0,0,0-1.51-1.0009c-.0313.0058-.0586.0185-.0879.0263-.836-3.2607-1.6426-5.8037-5.3477-8.3476a49.6246,49.6246,0,0,1,5.2022,8.3925,1.28,1.28,0,1,0,1.7431.93Z" fill="#fff"/><path d="M59.7646,147.2129a1.0037,1.0037,0,0,0-1.165-.8223,1.0144,1.0144,0,0,0-.6407.3945c-3.2792-2.8925-5.5332-2.91-7.2617-2.9892,1.043.374,4.795,1.4482,7.1748,3.1318a1,1,0,0,0-.1025.626,1.012,1.012,0,1,0,1.9951-.3408Z" fill="#fff"/><path d="M62.52,151.3086a1.4581,1.4581,0,1,0-1.1406,1.7138A1.465,1.465,0,0,0,62.52,151.3086Z" fill="#fff"/><path d="M64.6386,153.8164a1.01,1.01,0,0,0-1.17-.8233.9975.9975,0,0,0-.7519.58,13.9856,13.9856,0,0,0-8.5625,1.4756,41.3983,41.3983,0,0,1,8.497-1.3135l.0088-.0019a1.03,1.03,0,0,0-.0215.4238,1.0144,1.0144,0,0,0,2-.3408Z" fill="#fff"/><path d="M67.5742,155.5263a1.3189,1.3189,0,0,0-2.5879.5108c-.0293-.002-.0547-.0059-.0918-.0078-2.1113-.083-5.627.4775-7.7842,3.03a25.5128,25.5128,0,0,1,7.8408-2.93c.02.0019.0411,0,.0606,0a1.3169,1.3169,0,0,0,2.5625-.6036Z" fill="#fff"/><path d="M62.1923,129.6455c-4.7558,2.082-6.9628,8.0078-4.5293,12.3574C59.89,138.8369,64.083,138.1494,62.1923,129.6455Zm-4.5136,12.1289c-.5723-2.3906.9218-8.7578,3.0547-10.0664C59.3505,134.7959,58.7822,137.6572,57.6787,141.7744Z" fill="#fff"/><path d="M57.3564,120.7451a9.7263,9.7263,0,0,0-4.6465,5.5234,9.0136,9.0136,0,0,1,.9688,1.3653,12.193,12.193,0,0,1,2.8476-5.4258,27.9486,27.9486,0,0,0-2.3437,6.43,8.9787,8.9787,0,0,1,.7324,3.8086C57.8232,129.79,58.8291,125.1885,57.3564,120.7451Z" fill="#fff"/><path d="M86.0761,162.164c6.02,4.5313,9.4327,10.8184,10.3106,15.8838a4.8655,4.8655,0,0,0-3.0479-.9648c-.7832-5.3418-3.5742-9.6563-7.95-13.1738A5.5313,5.5313,0,0,1,86.0761,162.164Z" fill="#fff"/><path d="M80.4238,160.6064a1.65,1.65,0,0,1,1.9629-.22,3.712,3.712,0,0,0-.2031,2.51A2.2792,2.2792,0,0,1,80.4238,160.6064Z" fill="#fff"/><path d="M82.6445,160.5273a1.3091,1.3091,0,0,0,1.2949-.8769c.1494-.4024.6-.6543.6074-.042.0059.61.0118.8838-.3359,1.0517A1.7294,1.7294,0,0,1,82.6445,160.5273Z" fill="#fff"/><path d="M83.0722,161.8467a3.14,3.14,0,0,1-.5175,1.2734,3.7227,3.7227,0,0,1-.7393.6894,2.2429,2.2429,0,0,0,1.3818.4356c.4532-.0234.4717-.0889.4434-.2627A8.68,8.68,0,0,0,83.0722,161.8467Z" fill="#fff"/></svg>