<?xml version="1.0" encoding="UTF-8"?>
<svg id="Layer_1" data-name="Layer 1" xmlns="http://www.w3.org/2000/svg" viewBox="0 0 40 40">
  <defs>
    <style>
      .cls-1 {
        fill: #fff;
        stroke-width: 0px;
      }
    </style>
  </defs>
  <path class="cls-1" d="M25.6,23.36h-1.18l-.42-.4c1.51-1.75,2.34-3.99,2.34-6.31,0-5.35-4.34-9.7-9.7-9.7s-9.7,4.34-9.7,9.7,4.34,9.7,9.7,9.7c2.4,0,4.61-.88,6.31-2.34l.4.42v1.18l7.46,7.44,2.22-2.22-7.44-7.46ZM16.65,23.36c-3.71,0-6.71-3-6.71-6.71s3-6.71,6.71-6.71,6.71,3,6.71,6.71-3,6.71-6.71,6.71Z"/>
</svg>